<svg width="330" height="329" viewBox="0 0 330 329" fill="none" xmlns="http://www.w3.org/2000/svg">
<rect width="330" height="329" fill="#E4F2FD"/>
<circle cx="162.5" cy="164.5" r="77.5" fill="#C2E4FF"/>
<path d="M68.0775 239.1L69.0015 237.936V246.024L68.3415 245.376H75.5055V247.176H68.3415L69.0015 246.492V255H66.9615V237.3H76.5735V239.1H68.0775ZM84.4853 255.228C83.2053 255.228 82.0733 254.944 81.0893 254.376C80.1133 253.8 79.3453 253.016 78.7853 252.024C78.2333 251.024 77.9573 249.888 77.9573 248.616C77.9573 247.344 78.2333 246.216 78.7853 245.232C79.3453 244.248 80.1133 243.476 81.0893 242.916C82.0733 242.356 83.2053 242.076 84.4853 242.076C85.7653 242.076 86.8933 242.356 87.8693 242.916C88.8533 243.476 89.6213 244.248 90.1733 245.232C90.7333 246.216 91.0133 247.344 91.0133 248.616C91.0133 249.888 90.7333 251.024 90.1733 252.024C89.6213 253.016 88.8533 253.8 87.8693 254.376C86.8933 254.944 85.7653 255.228 84.4853 255.228ZM84.4853 253.356C85.3653 253.356 86.1413 253.16 86.8133 252.768C87.4853 252.376 88.0093 251.824 88.3853 251.112C88.7693 250.4 88.9613 249.568 88.9613 248.616C88.9613 247.664 88.7693 246.84 88.3853 246.144C88.0093 245.44 87.4853 244.9 86.8133 244.524C86.1413 244.14 85.3653 243.948 84.4853 243.948C83.6133 243.948 82.8373 244.14 82.1573 244.524C81.4853 244.9 80.9573 245.44 80.5733 246.144C80.1973 246.84 80.0093 247.664 80.0093 248.616C80.0093 249.568 80.1973 250.4 80.5733 251.112C80.9573 251.824 81.4853 252.376 82.1573 252.768C82.8373 253.16 83.6133 253.356 84.4853 253.356ZM94.1993 255V242.256H96.2393V246.168L95.5673 245.928C95.6153 245.456 95.7353 244.992 95.9273 244.536C96.1193 244.072 96.3833 243.656 96.7193 243.288C97.0633 242.912 97.4913 242.616 98.0033 242.4C98.5153 242.176 99.1153 242.064 99.8033 242.064C100.315 242.064 100.731 242.108 101.051 242.196C101.379 242.276 101.583 242.34 101.663 242.388L101.135 244.392C101.055 244.336 100.891 244.264 100.643 244.176C100.403 244.088 100.059 244.044 99.6113 244.044C98.9473 244.044 98.3953 244.164 97.9553 244.404C97.5233 244.644 97.1793 244.964 96.9233 245.364C96.6753 245.756 96.4993 246.184 96.3953 246.648C96.2913 247.112 96.2393 247.572 96.2393 248.028V255H94.1993ZM104.281 249.444V247.62H114.133L113.773 248.22C113.773 248.172 113.773 248.128 113.773 248.088C113.773 248.04 113.773 247.996 113.773 247.956C113.773 247.22 113.617 246.548 113.305 245.94C113.001 245.324 112.545 244.832 111.937 244.464C111.329 244.096 110.577 243.912 109.681 243.912C108.777 243.912 107.981 244.104 107.293 244.488C106.605 244.872 106.069 245.416 105.685 246.12C105.301 246.816 105.109 247.648 105.109 248.616C105.109 249.6 105.293 250.448 105.661 251.16C106.037 251.872 106.569 252.42 107.257 252.804C107.945 253.188 108.761 253.38 109.705 253.38C110.377 253.38 110.961 253.312 111.457 253.176C111.953 253.032 112.361 252.844 112.681 252.612C113.009 252.372 113.257 252.112 113.425 251.832C113.593 251.552 113.693 251.272 113.725 250.992H115.765C115.725 251.504 115.565 252.012 115.285 252.516C115.005 253.02 114.609 253.48 114.097 253.896C113.585 254.304 112.957 254.632 112.213 254.88C111.469 255.128 110.613 255.252 109.645 255.252C108.365 255.252 107.237 254.972 106.261 254.412C105.285 253.852 104.517 253.076 103.957 252.084C103.405 251.092 103.129 249.952 103.129 248.664C103.129 247.36 103.409 246.216 103.969 245.232C104.529 244.24 105.301 243.464 106.285 242.904C107.269 242.344 108.393 242.064 109.657 242.064C110.945 242.064 112.061 242.344 113.005 242.904C113.949 243.464 114.677 244.232 115.189 245.208C115.701 246.176 115.957 247.28 115.957 248.52C115.957 248.648 115.953 248.816 115.945 249.024C115.937 249.232 115.925 249.372 115.909 249.444H104.281ZM121.333 236.244V255H119.317V236.244H121.333ZM130.322 255.24C129.274 255.24 128.314 254.988 127.442 254.484C126.57 253.972 125.874 253.224 125.354 252.24C124.834 251.248 124.574 250.04 124.574 248.616C124.574 247.216 124.838 246.028 125.366 245.052C125.894 244.076 126.594 243.336 127.466 242.832C128.338 242.32 129.29 242.064 130.322 242.064C131.306 242.064 132.226 242.3 133.082 242.772C133.946 243.236 134.642 243.884 135.17 244.716C135.698 245.548 135.962 246.512 135.962 247.608C135.962 247.632 135.962 247.656 135.962 247.68C135.962 247.704 135.962 247.728 135.962 247.752L134.498 247.812C134.498 247.788 134.498 247.764 134.498 247.74C134.498 247.708 134.498 247.68 134.498 247.656C134.498 246.96 134.314 246.332 133.946 245.772C133.586 245.212 133.11 244.768 132.518 244.44C131.926 244.104 131.29 243.936 130.61 243.936C129.474 243.936 128.534 244.32 127.79 245.088C127.046 245.848 126.674 247.024 126.674 248.616C126.674 250.2 127.046 251.38 127.79 252.156C128.542 252.924 129.482 253.308 130.61 253.308C131.322 253.308 131.97 253.136 132.554 252.792C133.146 252.448 133.618 251.988 133.97 251.412C134.322 250.828 134.498 250.176 134.498 249.456L135.962 249.492C135.962 250.58 135.71 251.56 135.206 252.432C134.702 253.296 134.022 253.98 133.166 254.484C132.318 254.988 131.37 255.24 130.322 255.24ZM134.498 255V236.244H136.55V255H134.498ZM140.137 255V242.256H142.177V246.168L141.505 245.928C141.553 245.456 141.673 244.992 141.865 244.536C142.057 244.072 142.321 243.656 142.657 243.288C143.001 242.912 143.429 242.616 143.941 242.4C144.453 242.176 145.053 242.064 145.741 242.064C146.253 242.064 146.669 242.108 146.989 242.196C147.317 242.276 147.521 242.34 147.601 242.388L147.073 244.392C146.993 244.336 146.829 244.264 146.581 244.176C146.341 244.088 145.997 244.044 145.549 244.044C144.885 244.044 144.333 244.164 143.893 244.404C143.461 244.644 143.117 244.964 142.861 245.364C142.613 245.756 142.437 246.184 142.333 246.648C142.229 247.112 142.177 247.572 142.177 248.028V255H140.137ZM150.219 249.444V247.62H160.071L159.711 248.22C159.711 248.172 159.711 248.128 159.711 248.088C159.711 248.04 159.711 247.996 159.711 247.956C159.711 247.22 159.555 246.548 159.243 245.94C158.939 245.324 158.483 244.832 157.875 244.464C157.267 244.096 156.515 243.912 155.619 243.912C154.715 243.912 153.919 244.104 153.231 244.488C152.543 244.872 152.007 245.416 151.623 246.12C151.239 246.816 151.047 247.648 151.047 248.616C151.047 249.6 151.231 250.448 151.599 251.16C151.975 251.872 152.507 252.42 153.195 252.804C153.883 253.188 154.699 253.38 155.643 253.38C156.315 253.38 156.899 253.312 157.395 253.176C157.891 253.032 158.299 252.844 158.619 252.612C158.947 252.372 159.195 252.112 159.363 251.832C159.531 251.552 159.631 251.272 159.663 250.992H161.703C161.663 251.504 161.503 252.012 161.223 252.516C160.943 253.02 160.547 253.48 160.035 253.896C159.523 254.304 158.895 254.632 158.151 254.88C157.407 255.128 156.551 255.252 155.583 255.252C154.303 255.252 153.175 254.972 152.199 254.412C151.223 253.852 150.455 253.076 149.895 252.084C149.343 251.092 149.067 249.952 149.067 248.664C149.067 247.36 149.347 246.216 149.907 245.232C150.467 244.24 151.239 243.464 152.223 242.904C153.207 242.344 154.331 242.064 155.595 242.064C156.883 242.064 157.999 242.344 158.943 242.904C159.887 243.464 160.615 244.232 161.127 245.208C161.639 246.176 161.895 247.28 161.895 248.52C161.895 248.648 161.891 248.816 161.883 249.024C161.875 249.232 161.863 249.372 161.847 249.444H150.219ZM166.982 255H164.93V237.3H169.898C171.266 237.3 172.402 237.556 173.306 238.068C174.21 238.572 174.886 239.252 175.334 240.108C175.782 240.964 176.006 241.916 176.006 242.964C176.006 244.012 175.774 244.98 175.31 245.868C174.854 246.756 174.17 247.472 173.258 248.016C172.354 248.552 171.234 248.82 169.898 248.82H166.982V255ZM166.982 248.064L166.058 247.02H169.646C170.606 247.02 171.402 246.852 172.034 246.516C172.674 246.172 173.15 245.696 173.462 245.088C173.782 244.48 173.942 243.772 173.942 242.964C173.942 242.148 173.79 241.452 173.486 240.876C173.182 240.3 172.714 239.86 172.082 239.556C171.45 239.252 170.638 239.1 169.646 239.1H166.058L166.982 237.936V248.064ZM184.282 255.228C183.002 255.228 181.87 254.944 180.886 254.376C179.91 253.8 179.142 253.016 178.582 252.024C178.03 251.024 177.754 249.888 177.754 248.616C177.754 247.344 178.03 246.216 178.582 245.232C179.142 244.248 179.91 243.476 180.886 242.916C181.87 242.356 183.002 242.076 184.282 242.076C185.562 242.076 186.69 242.356 187.666 242.916C188.65 243.476 189.418 244.248 189.97 245.232C190.53 246.216 190.81 247.344 190.81 248.616C190.81 249.888 190.53 251.024 189.97 252.024C189.418 253.016 188.65 253.8 187.666 254.376C186.69 254.944 185.562 255.228 184.282 255.228ZM184.282 253.356C185.162 253.356 185.938 253.16 186.61 252.768C187.282 252.376 187.806 251.824 188.182 251.112C188.566 250.4 188.758 249.568 188.758 248.616C188.758 247.664 188.566 246.84 188.182 246.144C187.806 245.44 187.282 244.9 186.61 244.524C185.938 244.14 185.162 243.948 184.282 243.948C183.41 243.948 182.634 244.14 181.954 244.524C181.282 244.9 180.754 245.44 180.37 246.144C179.994 246.84 179.806 247.664 179.806 248.616C179.806 249.568 179.994 250.4 180.37 251.112C180.754 251.824 181.282 252.376 181.954 252.768C182.634 253.16 183.41 253.356 184.282 253.356ZM193.996 255V242.256H196.036V246.168L195.364 245.928C195.412 245.456 195.532 244.992 195.724 244.536C195.916 244.072 196.18 243.656 196.516 243.288C196.86 242.912 197.288 242.616 197.8 242.4C198.312 242.176 198.912 242.064 199.6 242.064C200.112 242.064 200.528 242.108 200.848 242.196C201.176 242.276 201.38 242.34 201.46 242.388L200.932 244.392C200.852 244.336 200.688 244.264 200.44 244.176C200.2 244.088 199.856 244.044 199.408 244.044C198.744 244.044 198.192 244.164 197.752 244.404C197.32 244.644 196.976 244.964 196.72 245.364C196.472 245.756 196.296 246.184 196.192 246.648C196.088 247.112 196.036 247.572 196.036 248.028V255H193.996ZM208.692 255.192C208.3 255.192 207.916 255.148 207.54 255.06C207.164 254.972 206.824 254.816 206.52 254.592C206.224 254.36 205.988 254.036 205.812 253.62C205.636 253.196 205.548 252.652 205.548 251.988C205.548 251.82 205.548 251.648 205.548 251.472C205.548 251.288 205.548 251.096 205.548 250.896V244.056H202.44V242.256H204.432C204.704 242.256 204.916 242.248 205.068 242.232C205.22 242.208 205.328 242.156 205.392 242.076C205.464 241.988 205.508 241.856 205.524 241.68C205.54 241.496 205.548 241.244 205.548 240.924V238.032H207.6V242.256H211.584V244.056H207.6V250.236C207.6 250.412 207.6 250.584 207.6 250.752C207.6 250.92 207.6 251.076 207.6 251.22C207.6 251.9 207.68 252.432 207.84 252.816C208.008 253.2 208.38 253.392 208.956 253.392C209.188 253.392 209.408 253.372 209.616 253.332C209.824 253.292 209.98 253.252 210.084 253.212V254.988C209.948 255.036 209.756 255.08 209.508 255.12C209.268 255.168 208.996 255.192 208.692 255.192ZM218.229 255.24C217.261 255.24 216.413 255.088 215.685 254.784C214.965 254.48 214.405 254.044 214.005 253.476C213.605 252.9 213.405 252.212 213.405 251.412C213.405 250.58 213.621 249.888 214.053 249.336C214.485 248.776 215.093 248.34 215.877 248.028C216.661 247.716 217.573 247.508 218.613 247.404C220.181 247.244 221.297 247.088 221.961 246.936C222.625 246.776 222.957 246.52 222.957 246.168C222.957 246.16 222.957 246.156 222.957 246.156C222.957 246.148 222.957 246.14 222.957 246.132C222.957 245.396 222.657 244.848 222.057 244.488C221.457 244.12 220.589 243.936 219.453 243.936C218.269 243.936 217.349 244.144 216.693 244.56C216.037 244.968 215.709 245.632 215.709 246.552H213.693C213.693 245.6 213.937 244.792 214.425 244.128C214.913 243.456 215.589 242.944 216.453 242.592C217.325 242.24 218.329 242.064 219.465 242.064C220.505 242.064 221.441 242.224 222.273 242.544C223.113 242.856 223.777 243.324 224.265 243.948C224.761 244.564 225.009 245.328 225.009 246.24C225.009 246.408 225.009 246.576 225.009 246.744C225.009 246.904 225.009 247.068 225.009 247.236V252.6C225.009 252.88 225.021 253.152 225.045 253.416C225.069 253.68 225.109 253.912 225.165 254.112C225.237 254.352 225.317 254.548 225.405 254.7C225.493 254.844 225.565 254.944 225.621 255H223.569C223.529 254.96 223.469 254.868 223.389 254.724C223.309 254.572 223.233 254.396 223.161 254.196C223.105 254.036 223.061 253.836 223.029 253.596C222.997 253.348 222.981 253.092 222.981 252.828L223.317 253.056C223.069 253.488 222.705 253.868 222.225 254.196C221.753 254.524 221.181 254.78 220.509 254.964C219.837 255.148 219.077 255.24 218.229 255.24ZM218.553 253.404C219.377 253.404 220.121 253.28 220.785 253.032C221.449 252.776 221.977 252.4 222.369 251.904C222.761 251.408 222.957 250.792 222.957 250.056V247.524L223.413 248.292C222.901 248.492 222.261 248.656 221.493 248.784C220.733 248.904 219.937 249.004 219.105 249.084C217.897 249.196 216.985 249.408 216.369 249.72C215.761 250.032 215.457 250.556 215.457 251.292C215.457 251.988 215.709 252.516 216.213 252.876C216.717 253.228 217.497 253.404 218.553 253.404ZM230.598 236.244V255H228.582V236.244H230.598ZM234.992 249.444V247.62H244.844L244.484 248.22C244.484 248.172 244.484 248.128 244.484 248.088C244.484 248.04 244.484 247.996 244.484 247.956C244.484 247.22 244.328 246.548 244.016 245.94C243.712 245.324 243.256 244.832 242.648 244.464C242.04 244.096 241.288 243.912 240.392 243.912C239.488 243.912 238.692 244.104 238.004 244.488C237.316 244.872 236.78 245.416 236.396 246.12C236.012 246.816 235.82 247.648 235.82 248.616C235.82 249.6 236.004 250.448 236.372 251.16C236.748 251.872 237.28 252.42 237.968 252.804C238.656 253.188 239.472 253.38 240.416 253.38C241.088 253.38 241.672 253.312 242.168 253.176C242.664 253.032 243.072 252.844 243.392 252.612C243.72 252.372 243.968 252.112 244.136 251.832C244.304 251.552 244.404 251.272 244.436 250.992H246.476C246.436 251.504 246.276 252.012 245.996 252.516C245.716 253.02 245.32 253.48 244.808 253.896C244.296 254.304 243.668 254.632 242.924 254.88C242.18 255.128 241.324 255.252 240.356 255.252C239.076 255.252 237.948 254.972 236.972 254.412C235.996 253.852 235.228 253.076 234.668 252.084C234.116 251.092 233.84 249.952 233.84 248.664C233.84 247.36 234.12 246.216 234.68 245.232C235.24 244.24 236.012 243.464 236.996 242.904C237.98 242.344 239.104 242.064 240.368 242.064C241.656 242.064 242.772 242.344 243.716 242.904C244.66 243.464 245.388 244.232 245.9 245.208C246.412 246.176 246.668 247.28 246.668 248.52C246.668 248.648 246.664 248.816 246.656 249.024C246.648 249.232 246.636 249.372 246.62 249.444H234.992ZM258.968 255V248.892C258.968 248.524 258.968 248.224 258.968 247.992C258.968 247.752 258.968 247.524 258.968 247.308C258.968 246.644 258.856 246.064 258.632 245.568C258.408 245.072 258.056 244.688 257.576 244.416C257.096 244.144 256.468 244.008 255.692 244.008C255.012 244.008 254.38 244.184 253.796 244.536C253.22 244.88 252.756 245.348 252.404 245.94C252.06 246.524 251.888 247.18 251.888 247.908L250.724 247.464C250.724 246.464 250.968 245.556 251.456 244.74C251.952 243.924 252.608 243.276 253.424 242.796C254.248 242.308 255.144 242.064 256.112 242.064C257.096 242.064 257.956 242.252 258.692 242.628C259.428 243.004 259.996 243.544 260.396 244.248C260.804 244.944 261.008 245.784 261.008 246.768C261.008 247.12 261.008 247.504 261.008 247.92C261.008 248.336 261.008 248.724 261.008 249.084V255H258.968ZM249.848 255V242.256H251.888V255H249.848Z" fill="#204587"/>
<path d="M202 120C206.418 120 210 123.582 210 128V196C210 204.284 203.284 211 195 211H130C121.716 211 115 204.284 115 196V128C115 123.582 118.582 120 123 120H202Z" fill="#39E9D4"/>
<path d="M192 143C198.627 143 204 148.373 204 155V193C204 199.627 198.627 205 192 205H133C126.373 205 121 199.627 121 193V155C121 148.373 126.373 143 133 143H192Z" fill="white"/>
<rect x="121" y="143" width="83" height="31" rx="2" fill="white"/>
<g clip-path="url(#clip0_9_38)">
<rect x="130" y="151" width="13" height="13" rx="3" fill="#39E9D4"/>
<rect x="147" y="151" width="13" height="13" rx="3" fill="#39E9D4"/>
<rect x="164" y="151" width="13" height="13" rx="3" fill="#39E9D4"/>
<rect x="181" y="151" width="13" height="13" rx="3" fill="#39E9D4"/>
<rect x="181" y="168" width="13" height="13" rx="3" fill="#39E9D4"/>
<rect x="164" y="168" width="13" height="13" rx="6.5" fill="#F1FF33"/>
<rect x="147" y="168" width="13" height="13" rx="3" fill="#39E9D4"/>
<rect x="130" y="168" width="13" height="13" rx="3" fill="#39E9D4"/>
<rect x="130" y="185" width="13" height="13" rx="3" fill="#39E9D4"/>
<rect x="147" y="185" width="13" height="13" rx="3" fill="#39E9D4"/>
<rect x="164" y="185" width="13" height="13" rx="3" fill="#39E9D4"/>
<rect x="181" y="185" width="13" height="13" rx="3" fill="#39E9D4"/>
</g>
<rect x="130" y="113" width="10" height="18" rx="5" fill="#204587"/>
<rect x="184" y="113" width="10" height="18" rx="5" fill="#204587"/>
<circle cx="200.5" cy="198.5" r="16.5" fill="#204587"/>
<path d="M197.192 199.506C198.364 200.678 200.263 200.678 201.435 199.506L212.749 188.192C213.92 187.021 215.82 187.021 216.991 188.192C218.163 189.364 218.163 191.264 216.991 192.435L201.435 207.991C200.263 209.163 198.364 209.163 197.192 207.991L190.121 200.92C188.95 199.749 188.95 197.849 190.121 196.678C191.293 195.506 193.192 195.506 194.364 196.678L197.192 199.506Z" fill="white"/>
<defs>
<clipPath id="clip0_9_38">
<rect width="68" height="51" fill="white" transform="translate(128 149)"/>
</clipPath>
</defs>
</svg>
